# This file uses centimeters as units for non-parametric coordinates.

mtllib P8_7.mtl
g default
v -170.782798 0.680904 594.698731
v -133.562676 0.680904 594.698731
v -96.342553 0.680904 594.698731
v -59.122434 0.680904 594.698731
v -170.782798 125.246463 594.698731
v -133.562676 125.246463 594.698731
v -96.342553 125.246463 594.698731
v -59.122434 125.246463 594.698731
v -170.782798 249.812022 594.698731
v -133.562676 249.812022 594.698731
v -96.342553 249.812022 594.698731
v -59.122434 249.812022 594.698731
v -170.782798 374.377570 594.698731
v -133.562676 374.377570 594.698731
v -96.342553 374.377570 594.698731
v -59.122434 374.377570 594.698731
v -170.782798 374.377570 557.478608
v -133.562676 374.377570 557.478608
v -96.342553 374.377570 557.478608
v -59.122434 374.377570 557.478608
v -170.782798 374.377570 520.258486
v -133.562676 374.377570 520.258486
v -96.342553 374.377570 520.258486
v -59.122434 374.377570 520.258486
v -170.782798 374.377570 483.038367
v -133.562676 374.377570 483.038367
v -96.342553 374.377570 483.038367
v -59.122434 374.377570 483.038367
v -170.782798 249.812011 483.038367
v -133.562676 249.812011 483.038367
v -96.342553 249.812011 483.038367
v -59.122434 249.812011 483.038367
v -170.782798 125.246452 483.038367
v -133.562676 125.246452 483.038367
v -96.342553 125.246452 483.038367
v -59.122434 125.246452 483.038367
v -170.782798 0.680904 483.038367
v -133.562676 0.680904 483.038367
v -96.342553 0.680904 483.038367
v -59.122434 0.680904 483.038367
v -170.782798 0.680904 520.258489
v -133.562676 0.680904 520.258489
v -96.342553 0.680904 520.258489
v -59.122434 0.680904 520.258489
v -170.782798 0.680904 557.478612
v -133.562676 0.680904 557.478612
v -96.342553 0.680904 557.478612
v -59.122434 0.680904 557.478612
v -59.122434 125.246463 520.258489
v -59.122434 125.246463 557.478612
v -59.122434 249.812022 520.258489
v -59.122434 249.812022 557.478612
v -170.782798 125.246463 520.258489
v -170.782798 125.246463 557.478612
v -170.782798 249.812022 520.258489
v -170.782798 249.812022 557.478612
vt 0.001893 0.778336
vt 0.001893 0.668507
vt 0.111722 0.668507
vt 0.111722 0.778336
vt 0.221551 0.668507
vt 0.221551 0.778336
vt 0.001893 0.888150
vt 0.111722 0.888150
vt 0.331366 0.668507
vt 0.331366 0.778336
vt 0.221551 0.888150
vt 0.001893 0.997979
vt 0.111722 0.997979
vt 0.331366 0.888150
vt 0.221551 0.997979
vt 0.331366 0.997979
vt 0.338814 0.668540
vt 0.448636 0.668540
vt 0.448636 0.778361
vt 0.338814 0.778361
vt 0.558461 0.668540
vt 0.558461 0.778361
vt 0.448636 0.888187
vt 0.338814 0.888187
vt 0.668283 0.668540
vt 0.668283 0.778361
vt 0.558461 0.888187
vt 0.448636 0.998008
vt 0.338814 0.998008
vt 0.668283 0.888187
vt 0.558461 0.998008
vt 0.668283 0.998008
vt 0.338814 0.001996
vt 0.448636 0.001996
vt 0.448636 0.111825
vt 0.338814 0.111825
vt 0.558461 0.001996
vt 0.558461 0.111825
vt 0.448636 0.221639
vt 0.338814 0.221639
vt 0.668283 0.001996
vt 0.668283 0.111825
vt 0.558461 0.221639
vt 0.448636 0.331468
vt 0.338814 0.331468
vt 0.668283 0.221639
vt 0.558461 0.331468
vt 0.668283 0.331468
vt 0.282689 0.335248
vt 0.392511 0.335248
vt 0.392511 0.445069
vt 0.282689 0.445069
vt 0.502336 0.335248
vt 0.502336 0.445069
vt 0.392511 0.554895
vt 0.282689 0.554895
vt 0.612158 0.335248
vt 0.612158 0.445069
vt 0.502336 0.554895
vt 0.392511 0.664716
vt 0.282689 0.664716
vt 0.612158 0.554895
vt 0.502336 0.664716
vt 0.612158 0.664716
vt 0.001890 0.001992
vt 0.111711 0.001992
vt 0.111711 0.111814
vt 0.001890 0.111814
vt 0.221537 0.001992
vt 0.221537 0.111814
vt 0.111711 0.221639
vt 0.001890 0.221639
vt 0.331358 0.001992
vt 0.331358 0.111814
vt 0.221537 0.221639
vt 0.111711 0.331461
vt 0.001890 0.331461
vt 0.331358 0.221639
vt 0.221537 0.331461
vt 0.331358 0.331461
vt 0.617981 0.335255
vt 0.727802 0.335255
vt 0.727802 0.445069
vt 0.617981 0.445069
vt 0.837628 0.335255
vt 0.837628 0.445069
vt 0.727802 0.554913
vt 0.617981 0.554913
vt 0.947449 0.335255
vt 0.947449 0.445069
vt 0.837628 0.554913
vt 0.727802 0.664727
vt 0.617981 0.664727
vt 0.947449 0.554913
vt 0.837628 0.664727
vt 0.947449 0.664727
vn 0.000000 0.000000 1.000000
vn 0.000000 0.000000 1.000000
vn 0.000000 0.000000 1.000000
vn 0.000000 0.000000 1.000000
vn 0.000000 0.000000 1.000000
vn 0.000000 0.000000 1.000000
vn 0.000000 0.000000 1.000000
vn 0.000000 0.000000 1.000000
vn 0.000000 0.000000 1.000000
vn 0.000000 0.000000 1.000000
vn 0.000000 0.000000 1.000000
vn 0.000000 0.000000 1.000000
vn 0.000000 0.000000 1.000000
vn 0.000000 0.000000 1.000000
vn 0.000000 0.000000 1.000000
vn 0.000000 0.000000 1.000000
vn 0.000000 1.000000 0.000000
vn 0.000000 1.000000 0.000000
vn 0.000000 1.000000 0.000000
vn 0.000000 1.000000 0.000000
vn 0.000000 1.000000 0.000000
vn 0.000000 1.000000 0.000000
vn 0.000000 1.000000 0.000000
vn 0.000000 1.000000 0.000000
vn 0.000000 1.000000 0.000000
vn 0.000000 1.000000 0.000000
vn 0.000000 1.000000 0.000000
vn 0.000000 1.000000 0.000000
vn 0.000000 1.000000 0.000000
vn 0.000000 1.000000 0.000000
vn 0.000000 1.000000 0.000000
vn 0.000000 1.000000 0.000000
vn 0.000000 0.000000 -1.000000
vn 0.000000 0.000000 -1.000000
vn 0.000000 0.000000 -1.000000
vn 0.000000 0.000000 -1.000000
vn 0.000000 0.000000 -1.000000
vn 0.000000 0.000000 -1.000000
vn 0.000000 0.000000 -1.000000
vn 0.000000 0.000000 -1.000000
vn 0.000000 0.000000 -1.000000
vn 0.000000 0.000000 -1.000000
vn 0.000000 0.000000 -1.000000
vn 0.000000 0.000000 -1.000000
vn 0.000000 0.000000 -1.000000
vn 0.000000 0.000000 -1.000000
vn 0.000000 0.000000 -1.000000
vn 0.000000 0.000000 -1.000000
vn 0.000000 -1.000000 0.000000
vn 0.000000 -1.000000 0.000000
vn 0.000000 -1.000000 0.000000
vn 0.000000 -1.000000 0.000000
vn 0.000000 -1.000000 0.000000
vn 0.000000 -1.000000 0.000000
vn 0.000000 -1.000000 0.000000
vn 0.000000 -1.000000 0.000000
vn 0.000000 -1.000000 0.000000
vn 0.000000 -1.000000 0.000000
vn 0.000000 -1.000000 0.000000
vn 0.000000 -1.000000 0.000000
vn 0.000000 -1.000000 0.000000
vn 0.000000 -1.000000 0.000000
vn 0.000000 -1.000000 0.000000
vn 0.000000 -1.000000 0.000000
vn 1.000000 0.000000 0.000000
vn 1.000000 0.000000 0.000000
vn 1.000000 0.000000 0.000000
vn 1.000000 0.000000 0.000000
vn 1.000000 0.000000 0.000000
vn 1.000000 0.000000 0.000000
vn 1.000000 0.000000 0.000000
vn 1.000000 0.000000 0.000000
vn 1.000000 0.000000 0.000000
vn 1.000000 0.000000 0.000000
vn 1.000000 0.000000 0.000000
vn 1.000000 0.000000 0.000000
vn 1.000000 0.000000 0.000000
vn 1.000000 0.000000 0.000000
vn 1.000000 0.000000 0.000000
vn 1.000000 0.000000 0.000000
vn -1.000000 0.000000 0.000000
vn -1.000000 0.000000 0.000000
vn -1.000000 0.000000 0.000000
vn -1.000000 0.000000 0.000000
vn -1.000000 0.000000 0.000000
vn -1.000000 0.000000 0.000000
vn -1.000000 0.000000 0.000000
vn -1.000000 0.000000 0.000000
vn -1.000000 0.000000 0.000000
vn -1.000000 0.000000 0.000000
vn -1.000000 0.000000 0.000000
vn -1.000000 0.000000 0.000000
vn -1.000000 0.000000 0.000000
vn -1.000000 0.000000 0.000000
vn -1.000000 0.000000 0.000000
vn -1.000000 0.000000 0.000000
s 1
g initialShadingGroup pCube7
f 1/65/1 2/66/2 6/67/3 5/68/4
f 2/66/2 3/69/5 7/70/6 6/67/3
f 3/69/5 4/73/7 8/74/8 7/70/6
f 5/68/4 6/67/3 10/71/9 9/72/10
f 6/67/3 7/70/6 11/75/11 10/71/9
f 7/70/6 8/74/8 12/78/12 11/75/11
f 9/72/10 10/71/9 14/76/13 13/77/14
f 10/71/9 11/75/11 15/79/15 14/76/13
f 11/75/11 12/78/12 16/80/16 15/79/15
s 2
f 13/33/17 14/34/18 18/35/19 17/36/20
f 14/34/18 15/37/21 19/38/22 18/35/19
f 15/37/21 16/41/23 20/42/24 19/38/22
f 17/36/20 18/35/19 22/39/25 21/40/26
f 18/35/19 19/38/22 23/43/27 22/39/25
f 19/38/22 20/42/24 24/46/28 23/43/27
f 21/40/26 22/39/25 26/44/29 25/45/30
f 22/39/25 23/43/27 27/47/31 26/44/29
f 23/43/27 24/46/28 28/48/32 27/47/31
s 3
f 25/81/33 26/82/34 30/83/35 29/84/36
f 26/82/34 27/85/37 31/86/38 30/83/35
f 27/85/37 28/89/39 32/90/40 31/86/38
f 29/84/36 30/83/35 34/87/41 33/88/42
f 30/83/35 31/86/38 35/91/43 34/87/41
f 31/86/38 32/90/40 36/94/44 35/91/43
f 33/88/42 34/87/41 38/92/45 37/93/46
f 34/87/41 35/91/43 39/95/47 38/92/45
f 35/91/43 36/94/44 40/96/48 39/95/47
s 4
f 37/49/49 38/50/50 42/51/51 41/52/52
f 38/50/50 39/53/53 43/54/54 42/51/51
f 39/53/53 40/57/55 44/58/56 43/54/54
f 41/52/52 42/51/51 46/55/57 45/56/58
f 42/51/51 43/54/54 47/59/59 46/55/57
f 43/54/54 44/58/56 48/62/60 47/59/59
f 45/56/58 46/55/57 2/60/61 1/61/62
f 46/55/57 47/59/59 3/63/63 2/60/61
f 47/59/59 48/62/60 4/64/64 3/63/63
s 5
f 44/1/65 40/2/66 36/3/67 49/4/68
f 48/7/69 44/1/65 49/4/68 50/8/70
f 4/12/71 48/7/69 50/8/70 8/13/72
f 49/4/68 36/3/67 32/5/73 51/6/74
f 50/8/70 49/4/68 51/6/74 52/11/75
f 8/13/72 50/8/70 52/11/75 12/15/76
f 51/6/74 32/5/73 28/9/77 24/10/78
f 52/11/75 51/6/74 24/10/78 20/14/79
f 12/15/76 52/11/75 20/14/79 16/16/80
s 6
f 37/17/81 41/18/82 53/19/83 33/20/84
f 41/18/82 45/21/85 54/22/86 53/19/83
f 45/21/85 1/25/87 5/26/88 54/22/86
f 33/20/84 53/19/83 55/23/89 29/24/90
f 53/19/83 54/22/86 56/27/91 55/23/89
f 54/22/86 5/26/88 9/30/92 56/27/91
f 29/24/90 55/23/89 21/28/93 25/29/94
f 55/23/89 56/27/91 17/31/95 21/28/93
f 56/27/91 9/30/92 13/32/96 17/31/95
